<svg width="165" height="113" viewBox="0 0 165 113" fill="none" xmlns="http://www.w3.org/2000/svg">
<g clip-path="url(#clip0)">
<path d="M153.245 -83.6577C143.534 -82.3948 133.822 -81.1926 124.11 -80.0511C63.928 -72.95 3.58647 -67.3057 -56.8869 -63.7561C-74.4945 -62.6969 -92.2226 -61.4549 -109.893 -60.8813C-109.484 -51.7732 -108.83 -42.5145 -107.905 -33.5609C-101.651 2.84844 -92.7223 39.7 -87.8625 76.6021C-61.2969 93.8042 -29.6412 101.389 1.83558 98.0946C33.3124 94.8 62.7114 80.8245 85.1393 58.4944L222.197 -79.8095C199.204 -80.8492 176.24 -82.2232 153.245 -83.6577Z" stroke="#52FFB6" stroke-width="2.0719" stroke-miterlimit="10" stroke-linecap="round"/>
<path d="M153.245 -83.6577C143.534 -82.3948 133.822 -81.1926 124.11 -80.0511C63.928 -72.95 3.58647 -67.3057 -56.8869 -63.7561C-74.4945 -62.6969 -92.2226 -61.4549 -109.893 -60.8813C-109.484 -51.7732 -108.83 -42.5145 -107.905 -33.5609C-101.651 2.84844 -92.7223 39.7 -87.8625 76.6021C-61.2969 93.8042 -29.6412 101.389 1.83558 98.0946C33.3124 94.8 62.7114 80.8245 85.1393 58.4944L222.197 -79.8095C199.204 -80.8492 176.24 -82.2232 153.245 -83.6577Z" stroke="#52FFB6" stroke-width="2.0719" stroke-miterlimit="10" stroke-linecap="round"/>
<path d="M153.245 -83.6577C143.534 -82.3948 133.822 -81.1926 124.11 -80.0511C63.928 -72.95 3.58648 -67.3057 -56.8869 -63.7561C-74.4945 -62.6969 -92.2226 -61.4549 -109.893 -60.8813C-109.484 -51.7732 -108.83 -42.5145 -107.905 -33.5609C-101.964 0.906498 -93.7144 35.6054 -88.7129 70.4722C-62.4747 86.635 -31.559 93.4934 -0.94738 89.9424C29.6642 86.3914 58.1889 72.6378 80.0303 50.8977L210.169 -80.3875C191.195 -81.3459 172.22 -82.436 153.245 -83.6577Z" stroke="#52FFB6" stroke-width="2.0719" stroke-miterlimit="10" stroke-linecap="round"/>
<path d="M153.245 -83.6577C143.534 -82.3948 133.822 -81.1926 124.11 -80.0511C63.928 -72.95 3.58648 -67.3057 -56.8869 -63.7561C-74.4945 -62.6969 -92.2226 -61.4549 -109.893 -60.8813C-109.484 -51.7732 -108.83 -42.5145 -107.905 -33.5609C-101.964 0.906498 -93.7144 35.6054 -88.7129 70.4722C-62.4747 86.635 -31.559 93.4934 -0.94738 89.9424C29.6642 86.3914 58.1889 72.6378 80.0303 50.8977L210.169 -80.3875C191.195 -81.3459 172.22 -82.436 153.245 -83.6577Z" stroke="#52FFB6" stroke-width="2.0719" stroke-miterlimit="10" stroke-linecap="round"/>
<path d="M153.245 -83.6577C143.534 -82.3948 133.822 -81.1926 124.11 -80.0511C63.928 -72.95 3.58649 -67.3057 -56.8869 -63.7561C-74.4945 -62.6969 -92.2226 -61.4549 -109.893 -60.8813C-109.484 -51.7732 -108.83 -42.5145 -107.905 -33.5609C-102.308 -1.03527 -94.6449 31.6927 -89.5927 64.5246C-63.7253 79.666 -33.5713 85.8135 -3.84101 82.0069C25.8893 78.2003 53.5218 64.654 74.74 43.484L198.171 -81.0263C183.206 -81.8427 168.231 -82.7199 153.245 -83.6577Z" stroke="#52FFB6" stroke-width="2.0719" stroke-miterlimit="10" stroke-linecap="round"/>
<path d="M153.245 -83.6577C143.534 -82.3948 133.822 -81.1926 124.11 -80.0511C63.928 -72.95 3.58649 -67.3057 -56.8869 -63.7561C-74.4945 -62.6969 -92.2226 -61.4549 -109.893 -60.8813C-109.484 -51.7732 -108.83 -42.5145 -107.905 -33.5609C-102.308 -1.03527 -94.6449 31.6927 -89.5927 64.5246C-63.7253 79.666 -33.5713 85.8135 -3.84101 82.0069C25.8893 78.2003 53.5218 64.654 74.74 43.484L198.171 -81.0263C183.206 -81.8427 168.231 -82.7199 153.245 -83.6577Z" stroke="#52FFB6" stroke-width="2.0719" stroke-miterlimit="10" stroke-linecap="round"/>
<path d="M153.245 -83.6577C143.534 -82.3948 133.822 -81.1926 124.11 -80.0511C63.928 -72.95 3.58649 -67.3057 -56.8869 -63.7561C-74.4945 -62.6969 -92.2226 -61.4549 -109.893 -60.8813C-109.484 -51.7732 -108.83 -42.5145 -107.905 -33.5609C-102.653 -3.21998 -95.6378 27.4158 -90.5962 58.1222C-65.1128 72.3492 -35.69 77.8925 -6.77663 73.9137C22.1368 69.935 48.9687 56.6507 69.6623 36.0693L186.233 -81.6655L153.245 -83.6577Z" stroke="#52FFB6" stroke-width="2.0719" stroke-miterlimit="10" stroke-linecap="round"/>
<path d="M153.245 -83.6577C143.534 -82.3948 133.822 -81.1926 124.11 -80.0511C63.928 -72.95 3.58649 -67.3057 -56.8869 -63.7561C-74.4945 -62.6969 -92.2226 -61.4549 -109.893 -60.8813C-109.484 -51.7732 -108.83 -42.5145 -107.905 -33.5609C-102.653 -3.21998 -95.6378 27.4158 -90.5962 58.1222C-65.1128 72.3492 -35.69 77.8925 -6.77663 73.9137C22.1368 69.935 48.9687 56.6507 69.6623 36.0693L186.233 -81.6655L153.245 -83.6577Z" stroke="#52FFB6" stroke-width="2.0719" stroke-miterlimit="10" stroke-linecap="round"/>
<path d="M153.245 -83.6577C143.534 -82.3948 133.822 -81.1926 124.11 -80.0511C63.928 -72.95 3.58649 -67.3057 -56.8869 -63.7561C-74.4945 -62.6969 -92.2226 -61.4549 -109.893 -60.8813C-109.484 -51.7732 -108.83 -42.5145 -107.905 -33.5609C-103.027 -5.25271 -96.6 23.23 -91.6602 51.7808C-66.5843 65.0843 -37.9098 70.0163 -9.83006 65.8554C18.2497 61.6946 44.2618 48.6592 64.4023 28.6555L174.265 -82.3348L153.245 -83.6577Z" stroke="#52FFB6" stroke-width="2.0719" stroke-miterlimit="10" stroke-linecap="round"/>
<path d="M153.245 -83.6577C143.534 -82.3948 133.822 -81.1926 124.11 -80.0511C63.928 -72.95 3.58649 -67.3057 -56.8869 -63.7561C-74.4945 -62.6969 -92.2226 -61.4549 -109.893 -60.8813C-109.484 -51.7732 -108.83 -42.5145 -107.905 -33.5609C-103.027 -5.25271 -96.6 23.23 -91.6602 51.7808C-66.5843 65.0843 -37.9098 70.0163 -9.83006 65.8554C18.2497 61.6946 44.2618 48.6592 64.4023 28.6555L174.265 -82.3348L153.245 -83.6577Z" stroke="#52FFB6" stroke-width="2.0719" stroke-miterlimit="10" stroke-linecap="round"/>
<path d="M153.245 -83.6577C143.534 -82.3948 133.822 -81.1926 124.11 -80.0511C63.928 -72.95 3.58649 -67.3057 -56.8869 -63.7561C-74.4945 -62.6969 -92.2226 -61.4549 -109.893 -60.8813C-109.484 -51.7732 -108.83 -42.5145 -107.905 -33.5609C-103.403 -7.40691 -97.5629 18.8923 -92.8159 45.3183C-68.1229 57.7302 -40.1504 62.0574 -12.8612 57.6871C14.428 53.3168 39.6501 40.4704 59.2321 20.968L162.358 -83.0349L153.245 -83.6577Z" stroke="#52FFB6" stroke-width="2.0719" stroke-miterlimit="10" stroke-linecap="round"/>
<path d="M153.245 -83.6577C143.534 -82.3948 133.822 -81.1926 124.11 -80.0511C63.928 -72.95 3.58649 -67.3057 -56.8869 -63.7561C-74.4945 -62.6969 -92.2226 -61.4549 -109.893 -60.8813C-109.484 -51.7732 -108.83 -42.5145 -107.905 -33.5609C-103.403 -7.40691 -97.5629 18.8923 -92.8159 45.3183C-68.1229 57.7302 -40.1504 62.0574 -12.8612 57.6871C14.428 53.3168 39.6501 40.4704 59.2321 20.968L162.358 -83.0349L153.245 -83.6577Z" stroke="#52FFB6" stroke-width="2.0719" stroke-miterlimit="10" stroke-linecap="round"/>
<path d="M124.111 -79.96C63.9284 -72.8589 3.58682 -67.2146 -56.8866 -63.665C-74.4942 -62.6058 -92.2223 -61.3638 -109.893 -60.7902C-109.483 -51.6821 -108.83 -42.4234 -107.905 -33.4698C-103.777 -9.50035 -98.5562 14.5851 -94.0027 38.7346C-69.7302 50.357 -42.4511 54.1676 -15.9229 49.6415C10.6054 45.1155 35.0777 32.4754 54.1234 13.4624L149.846 -83.1245C141.258 -82.0494 132.7 -80.9744 124.111 -79.96Z" stroke="#52FFB6" stroke-width="2.0719" stroke-miterlimit="10" stroke-linecap="round"/>
<path d="M124.111 -79.96C63.9284 -72.8589 3.58682 -67.2146 -56.8866 -63.665C-74.4942 -62.6058 -92.2223 -61.3638 -109.893 -60.7902C-109.483 -51.6821 -108.83 -42.4234 -107.905 -33.4698C-103.777 -9.50035 -98.5562 14.5851 -94.0027 38.7346C-69.7302 50.357 -42.4511 54.1676 -15.9229 49.6415C10.6054 45.1155 35.0777 32.4754 54.1234 13.4624L149.846 -83.1245C141.258 -82.0494 132.7 -80.9744 124.111 -79.96Z" stroke="#52FFB6" stroke-width="2.0719" stroke-miterlimit="10" stroke-linecap="round"/>
<path d="M124.111 -79.9598C63.9287 -72.8587 3.58715 -67.2144 -56.8862 -63.6648C-74.4938 -62.6056 -92.222 -61.3636 -109.893 -60.79C-109.483 -51.6819 -108.83 -42.4232 -107.905 -33.4696C-104.153 -11.7455 -99.4893 10.0652 -95.433 31.9397C-71.5848 42.823 -44.9834 46.1695 -19.1827 41.5322C6.61791 36.8948 30.389 24.4944 48.9546 5.98764L135.401 -81.3521L124.111 -79.9598Z" stroke="#52FFB6" stroke-width="2.0719" stroke-miterlimit="10" stroke-linecap="round"/>
<path d="M124.111 -79.9598C63.9287 -72.8587 3.58715 -67.2144 -56.8862 -63.6648C-74.4938 -62.6056 -92.222 -61.3636 -109.893 -60.79C-109.483 -51.6819 -108.83 -42.4232 -107.905 -33.4696C-104.153 -11.7455 -99.4893 10.0652 -95.433 31.9397C-71.5848 42.823 -44.9834 46.1695 -19.1827 41.5322C6.61791 36.8948 30.389 24.4944 48.9546 5.98764L135.401 -81.3521L124.111 -79.9598Z" stroke="#52FFB6" stroke-width="2.0719" stroke-miterlimit="10" stroke-linecap="round"/>
<path d="M-56.8859 -63.6645C-74.4935 -62.6053 -92.2216 -61.3633 -109.892 -60.7897C-109.483 -51.6816 -108.829 -42.4229 -107.904 -33.4693C-104.558 -13.8688 -100.452 5.66707 -96.6196 25.2955C-73.2208 35.3334 -47.3533 38.1382 -22.3468 33.3489C2.65962 28.5596 25.6603 16.3954 43.6943 -1.57777L120.925 -79.5793C61.8347 -72.6658 2.52485 -67.1785 -56.8859 -63.6645Z" stroke="#52FFB6" stroke-width="2.0719" stroke-miterlimit="10" stroke-linecap="round"/>
<path d="M-56.8859 -63.6645C-74.4935 -62.6053 -92.2216 -61.3633 -109.892 -60.7897C-109.483 -51.6816 -108.829 -42.4229 -107.904 -33.4693C-104.558 -13.8688 -100.452 5.66707 -96.6196 25.2955C-73.2208 35.3334 -47.3533 38.1382 -22.3468 33.3489C2.65962 28.5596 25.6603 16.3954 43.6943 -1.57777L120.925 -79.5793C61.8347 -72.6658 2.52485 -67.1785 -56.8859 -63.6645Z" stroke="#52FFB6" stroke-width="2.0719" stroke-miterlimit="10" stroke-linecap="round"/>
<path d="M-56.8861 -63.6647C-74.4937 -62.6055 -92.2219 -61.3635 -109.893 -60.7899C-109.483 -51.6818 -108.83 -42.4232 -107.905 -33.4695C-104.934 -16.2054 -101.386 1.08609 -97.9293 18.4389C-74.9831 27.7583 -49.8008 30.1151 -25.5238 25.2153C-1.24684 20.3155 21.05 8.37587 38.5853 -9.11397L106.872 -78.0825C52.3946 -71.7993 -2.18083 -66.882 -56.8861 -63.6647Z" stroke="#52FFB6" stroke-width="2.0719" stroke-miterlimit="10" stroke-linecap="round"/>
<path d="M-56.8861 -63.6647C-74.4937 -62.6055 -92.2219 -61.3635 -109.893 -60.7899C-109.483 -51.6818 -108.83 -42.4232 -107.905 -33.4695C-104.934 -16.2054 -101.386 1.08609 -97.9293 18.4389C-74.9831 27.7583 -49.8008 30.1151 -25.5238 25.2153C-1.24684 20.3155 21.05 8.37587 38.5853 -9.11397L106.872 -78.0825C52.3946 -71.7993 -2.18083 -66.882 -56.8861 -63.6647Z" stroke="#52FFB6" stroke-width="2.0719" stroke-miterlimit="10" stroke-linecap="round"/>
<path d="M-56.8863 -63.6643C-74.4939 -62.6051 -92.2221 -61.3631 -109.893 -60.7894C-109.483 -51.6814 -108.83 -42.4227 -107.905 -33.469C-105.34 -18.4501 -102.35 -3.43331 -99.361 11.462C-76.8631 20.097 -52.3473 22.0374 -28.7711 17.0492C-5.19498 12.0611 16.4341 0.357454 33.5068 -16.6496L92.5774 -76.4016C42.8633 -70.9619 -6.97766 -66.6148 -56.8863 -63.6643Z" stroke="#52FFB6" stroke-width="2.0719" stroke-miterlimit="10" stroke-linecap="round"/>
<path d="M-56.8863 -63.6643C-74.4939 -62.6051 -92.2221 -61.3631 -109.893 -60.7894C-109.483 -51.6814 -108.83 -42.4227 -107.905 -33.469C-105.34 -18.4501 -102.35 -3.43331 -99.361 11.462C-76.8631 20.097 -52.3473 22.0374 -28.7711 17.0492C-5.19498 12.0611 16.4341 0.357454 33.5068 -16.6496L92.5774 -76.4016C42.8633 -70.9619 -6.97766 -66.6148 -56.8863 -63.6643Z" stroke="#52FFB6" stroke-width="2.0719" stroke-miterlimit="10" stroke-linecap="round"/>
<path d="M-56.8862 -63.6646C-74.4938 -62.6054 -92.222 -61.3634 -109.893 -60.7898C-109.483 -51.6817 -108.83 -42.423 -107.905 -33.4693C-105.747 -20.8474 -103.255 -8.22708 -100.732 4.45379C-78.7322 12.4194 -54.9203 13.9621 -32.0767 8.90172C-9.23316 3.84135 11.6995 -7.61325 28.277 -24.1246L78.4948 -74.8743C33.4537 -70.1563 -11.683 -66.3185 -56.8862 -63.6646Z" stroke="#52FFB6" stroke-width="2.0719" stroke-miterlimit="10" stroke-linecap="round"/>
<path d="M-56.8862 -63.6646C-74.4938 -62.6054 -92.222 -61.3634 -109.893 -60.7898C-109.483 -51.6817 -108.83 -42.423 -107.905 -33.4693C-105.747 -20.8474 -103.255 -8.22708 -100.732 4.45379C-78.7322 12.4194 -54.9203 13.9621 -32.0767 8.90172C-9.23316 3.84135 11.6995 -7.61325 28.277 -24.1246L78.4948 -74.8743C33.4537 -70.1563 -11.683 -66.3185 -56.8862 -63.6646Z" stroke="#52FFB6" stroke-width="2.0719" stroke-miterlimit="10" stroke-linecap="round"/>
<path d="M-56.8859 -63.6643C-74.4934 -62.6051 -92.2216 -61.3631 -109.892 -60.7895C-109.483 -51.6814 -108.829 -42.4228 -107.904 -33.4691C-106.153 -23.2138 -104.158 -12.9293 -102.133 -2.64491C-80.6404 4.65114 -57.5362 5.79493 -35.4279 0.657387C-13.3196 -4.48015 6.91283 -15.6945 22.9861 -31.7202L64.2604 -73.4065C23.953 -69.3801 -16.4185 -66.0518 -56.8859 -63.6643Z" stroke="#52FFB6" stroke-width="2.0719" stroke-miterlimit="10" stroke-linecap="round"/>
<path d="M-56.8859 -63.6643C-74.4934 -62.6051 -92.2216 -61.3631 -109.892 -60.7895C-109.483 -51.6814 -108.829 -42.4228 -107.904 -33.4691C-106.153 -23.2138 -104.158 -12.9293 -102.133 -2.64491C-80.6404 4.65114 -57.5362 5.79493 -35.4279 0.657387C-13.3196 -4.48015 6.91283 -15.6945 22.9861 -31.7202L64.2604 -73.4065C23.953 -69.3801 -16.4185 -66.0518 -56.8859 -63.6643Z" stroke="#52FFB6" stroke-width="2.0719" stroke-miterlimit="10" stroke-linecap="round"/>
</g>
<defs>
<clipPath id="clip0">
<rect width="165" height="113" fill="white"/>
</clipPath>
</defs>
</svg>
