<svg width="165" height="113" viewBox="0 0 165 113" fill="none" xmlns="http://www.w3.org/2000/svg">
<g clip-path="url(#clip0)">
<path d="M11.755 196.658C21.466 195.395 31.178 194.193 40.89 193.051C101.072 185.95 161.414 180.306 221.887 176.756C239.495 175.697 257.223 174.455 274.893 173.881C274.484 164.773 273.83 155.515 272.905 146.561C266.651 110.152 257.722 73.3 252.863 36.3979C226.297 19.1958 194.641 11.6111 163.164 14.9054C131.688 18.2 102.289 32.1755 79.8607 54.5056L-57.197 192.81C-34.204 193.849 -11.24 195.223 11.755 196.658Z" stroke="#FF52CF" stroke-width="2.0719" stroke-miterlimit="10" stroke-linecap="round"/>
<path d="M11.755 196.658C21.466 195.395 31.178 194.193 40.89 193.051C101.072 185.95 161.414 180.306 221.887 176.756C239.495 175.697 257.223 174.455 274.893 173.881C274.484 164.773 273.83 155.515 272.905 146.561C266.651 110.152 257.722 73.3 252.863 36.3979C226.297 19.1958 194.641 11.6111 163.164 14.9054C131.688 18.2 102.289 32.1755 79.8607 54.5056L-57.197 192.81C-34.204 193.849 -11.24 195.223 11.755 196.658Z" stroke="#FF52CF" stroke-width="2.0719" stroke-miterlimit="10" stroke-linecap="round"/>
<path d="M11.755 196.658C21.466 195.395 31.178 194.193 40.89 193.051C101.072 185.95 161.414 180.306 221.887 176.756C239.495 175.697 257.223 174.455 274.893 173.881C274.484 164.773 273.83 155.515 272.905 146.561C266.964 112.094 258.714 77.3946 253.713 42.5278C227.475 26.365 196.559 19.5066 165.947 23.0576C135.336 26.6086 106.811 40.3622 84.9697 62.1023L-45.169 193.388C-26.195 194.346 -7.22 195.436 11.755 196.658Z" stroke="#FF52CF" stroke-width="2.0719" stroke-miterlimit="10" stroke-linecap="round"/>
<path d="M11.755 196.658C21.466 195.395 31.178 194.193 40.89 193.051C101.072 185.95 161.414 180.306 221.887 176.756C239.495 175.697 257.223 174.455 274.893 173.881C274.484 164.773 273.83 155.515 272.905 146.561C266.964 112.094 258.714 77.3946 253.713 42.5278C227.475 26.365 196.559 19.5066 165.947 23.0576C135.336 26.6086 106.811 40.3622 84.9697 62.1023L-45.169 193.388C-26.195 194.346 -7.22 195.436 11.755 196.658Z" stroke="#FF52CF" stroke-width="2.0719" stroke-miterlimit="10" stroke-linecap="round"/>
<path d="M11.755 196.658C21.466 195.395 31.178 194.193 40.89 193.051C101.072 185.95 161.414 180.306 221.887 176.756C239.495 175.697 257.223 174.455 274.893 173.881C274.484 164.773 273.83 155.515 272.905 146.561C267.308 114.035 259.645 81.3073 254.593 48.4754C228.725 33.334 198.571 27.1865 168.841 30.9931C139.111 34.7997 111.478 48.346 90.26 69.516L-33.171 194.026C-18.206 194.843 -3.231 195.72 11.755 196.658Z" stroke="#FF52CF" stroke-width="2.0719" stroke-miterlimit="10" stroke-linecap="round"/>
<path d="M11.755 196.658C21.466 195.395 31.178 194.193 40.89 193.051C101.072 185.95 161.414 180.306 221.887 176.756C239.495 175.697 257.223 174.455 274.893 173.881C274.484 164.773 273.83 155.515 272.905 146.561C267.308 114.035 259.645 81.3073 254.593 48.4754C228.725 33.334 198.571 27.1865 168.841 30.9931C139.111 34.7997 111.478 48.346 90.26 69.516L-33.171 194.026C-18.206 194.843 -3.231 195.72 11.755 196.658Z" stroke="#FF52CF" stroke-width="2.0719" stroke-miterlimit="10" stroke-linecap="round"/>
<path d="M11.755 196.658C21.466 195.395 31.178 194.193 40.89 193.051C101.072 185.95 161.414 180.306 221.887 176.756C239.495 175.697 257.223 174.455 274.893 173.881C274.484 164.773 273.83 155.515 272.905 146.561C267.653 116.22 260.638 85.5842 255.596 54.8778C230.113 40.6508 200.69 35.1075 171.777 39.0863C142.863 43.065 116.031 56.3493 95.3377 76.9307L-21.233 194.666L11.755 196.658Z" stroke="#FF52CF" stroke-width="2.0719" stroke-miterlimit="10" stroke-linecap="round"/>
<path d="M11.755 196.658C21.466 195.395 31.178 194.193 40.89 193.051C101.072 185.95 161.414 180.306 221.887 176.756C239.495 175.697 257.223 174.455 274.893 173.881C274.484 164.773 273.83 155.515 272.905 146.561C267.653 116.22 260.638 85.5842 255.596 54.8778C230.113 40.6508 200.69 35.1075 171.777 39.0863C142.863 43.065 116.031 56.3493 95.3377 76.9307L-21.233 194.666L11.755 196.658Z" stroke="#FF52CF" stroke-width="2.0719" stroke-miterlimit="10" stroke-linecap="round"/>
<path d="M11.755 196.658C21.466 195.395 31.178 194.193 40.89 193.051C101.072 185.95 161.414 180.306 221.887 176.756C239.495 175.697 257.223 174.455 274.893 173.881C274.484 164.773 273.83 155.515 272.905 146.561C268.027 118.253 261.6 89.77 256.66 61.2192C231.584 47.9157 202.91 42.9837 174.83 47.1446C146.75 51.3054 120.738 64.3408 100.598 84.3445L-9.26498 195.335L11.755 196.658Z" stroke="#FF52CF" stroke-width="2.0719" stroke-miterlimit="10" stroke-linecap="round"/>
<path d="M11.755 196.658C21.466 195.395 31.178 194.193 40.89 193.051C101.072 185.95 161.414 180.306 221.887 176.756C239.495 175.697 257.223 174.455 274.893 173.881C274.484 164.773 273.83 155.515 272.905 146.561C268.027 118.253 261.6 89.77 256.66 61.2192C231.584 47.9157 202.91 42.9837 174.83 47.1446C146.75 51.3054 120.738 64.3408 100.598 84.3445L-9.26498 195.335L11.755 196.658Z" stroke="#FF52CF" stroke-width="2.0719" stroke-miterlimit="10" stroke-linecap="round"/>
<path d="M11.755 196.658C21.466 195.395 31.178 194.193 40.89 193.051C101.072 185.95 161.414 180.306 221.887 176.756C239.495 175.697 257.223 174.455 274.893 173.881C274.484 164.773 273.83 155.515 272.905 146.561C268.403 120.407 262.563 94.1077 257.816 67.6817C233.123 55.2698 205.15 50.9426 177.861 55.3129C150.572 59.6832 125.35 72.5296 105.768 92.032L2.642 196.035L11.755 196.658Z" stroke="#FF52CF" stroke-width="2.0719" stroke-miterlimit="10" stroke-linecap="round"/>
<path d="M11.755 196.658C21.466 195.395 31.178 194.193 40.89 193.051C101.072 185.95 161.414 180.306 221.887 176.756C239.495 175.697 257.223 174.455 274.893 173.881C274.484 164.773 273.83 155.515 272.905 146.561C268.403 120.407 262.563 94.1077 257.816 67.6817C233.123 55.2698 205.15 50.9426 177.861 55.3129C150.572 59.6832 125.35 72.5296 105.768 92.032L2.642 196.035L11.755 196.658Z" stroke="#FF52CF" stroke-width="2.0719" stroke-miterlimit="10" stroke-linecap="round"/>
<path d="M40.889 192.96C101.072 185.859 161.413 180.215 221.887 176.665C239.494 175.606 257.222 174.364 274.893 173.79C274.483 164.682 273.83 155.423 272.905 146.47C268.777 122.5 263.556 98.4149 259.003 74.2654C234.73 62.643 207.451 58.8324 180.923 63.3585C154.395 67.8845 129.922 80.5246 110.877 99.5376L15.154 196.125C23.742 195.049 32.3 193.974 40.889 192.96Z" stroke="#FF52CF" stroke-width="2.0719" stroke-miterlimit="10" stroke-linecap="round"/>
<path d="M40.889 192.96C101.072 185.859 161.413 180.215 221.887 176.665C239.494 175.606 257.222 174.364 274.893 173.79C274.483 164.682 273.83 155.423 272.905 146.47C268.777 122.5 263.556 98.4149 259.003 74.2654C234.73 62.643 207.451 58.8324 180.923 63.3585C154.395 67.8845 129.922 80.5246 110.877 99.5376L15.154 196.125C23.742 195.049 32.3 193.974 40.889 192.96Z" stroke="#FF52CF" stroke-width="2.0719" stroke-miterlimit="10" stroke-linecap="round"/>
<path d="M40.889 192.96C101.071 185.859 161.413 180.214 221.886 176.665C239.494 175.606 257.222 174.364 274.893 173.79C274.483 164.682 273.83 155.423 272.905 146.47C269.153 124.745 264.489 102.935 260.433 81.0603C236.585 70.177 209.983 66.8305 184.183 71.4678C158.382 76.1052 134.611 88.5056 116.045 107.012L29.599 194.352L40.889 192.96Z" stroke="#FF52CF" stroke-width="2.0719" stroke-miterlimit="10" stroke-linecap="round"/>
<path d="M40.889 192.96C101.071 185.859 161.413 180.214 221.886 176.665C239.494 175.606 257.222 174.364 274.893 173.79C274.483 164.682 273.83 155.423 272.905 146.47C269.153 124.745 264.489 102.935 260.433 81.0603C236.585 70.177 209.983 66.8305 184.183 71.4678C158.382 76.1052 134.611 88.5056 116.045 107.012L29.599 194.352L40.889 192.96Z" stroke="#FF52CF" stroke-width="2.0719" stroke-miterlimit="10" stroke-linecap="round"/>
<path d="M221.886 176.664C239.494 175.605 257.222 174.363 274.892 173.79C274.483 164.681 273.829 155.423 272.904 146.469C269.558 126.869 265.452 107.333 261.62 87.7043C238.221 77.6664 212.353 74.8616 187.347 79.6509C162.34 84.4402 139.34 96.6044 121.306 114.578L44.075 192.579C103.165 185.666 162.475 180.178 221.886 176.664Z" stroke="#FF52CF" stroke-width="2.0719" stroke-miterlimit="10" stroke-linecap="round"/>
<path d="M221.886 176.664C239.494 175.605 257.222 174.363 274.892 173.79C274.483 164.681 273.829 155.423 272.904 146.469C269.558 126.869 265.452 107.333 261.62 87.7043C238.221 77.6664 212.353 74.8616 187.347 79.6509C162.34 84.4402 139.34 96.6044 121.306 114.578L44.075 192.579C103.165 185.666 162.475 180.178 221.886 176.664Z" stroke="#FF52CF" stroke-width="2.0719" stroke-miterlimit="10" stroke-linecap="round"/>
<path d="M221.886 176.665C239.494 175.606 257.222 174.364 274.893 173.79C274.483 164.682 273.83 155.423 272.905 146.47C269.934 129.205 266.386 111.914 262.929 94.5611C239.983 85.2417 214.801 82.8849 190.524 87.7847C166.247 92.6845 143.95 104.624 126.415 122.114L58.128 191.083C112.605 184.799 167.181 179.882 221.886 176.665Z" stroke="#FF52CF" stroke-width="2.0719" stroke-miterlimit="10" stroke-linecap="round"/>
<path d="M221.886 176.665C239.494 175.606 257.222 174.364 274.893 173.79C274.483 164.682 273.83 155.423 272.905 146.47C269.934 129.205 266.386 111.914 262.929 94.5611C239.983 85.2417 214.801 82.8849 190.524 87.7847C166.247 92.6845 143.95 104.624 126.415 122.114L58.128 191.083C112.605 184.799 167.181 179.882 221.886 176.665Z" stroke="#FF52CF" stroke-width="2.0719" stroke-miterlimit="10" stroke-linecap="round"/>
<path d="M221.886 176.664C239.494 175.605 257.222 174.363 274.893 173.789C274.483 164.681 273.83 155.422 272.905 146.469C270.34 131.45 267.35 116.433 264.361 101.538C241.863 92.9028 217.347 90.9624 193.771 95.9506C170.195 100.939 148.566 112.642 131.493 129.649L72.4226 189.401C122.137 183.962 171.978 179.615 221.886 176.664Z" stroke="#FF52CF" stroke-width="2.0719" stroke-miterlimit="10" stroke-linecap="round"/>
<path d="M221.886 176.664C239.494 175.605 257.222 174.363 274.893 173.789C274.483 164.681 273.83 155.422 272.905 146.469C270.34 131.45 267.35 116.433 264.361 101.538C241.863 92.9028 217.347 90.9624 193.771 95.9506C170.195 100.939 148.566 112.642 131.493 129.649L72.4226 189.401C122.137 183.962 171.978 179.615 221.886 176.664Z" stroke="#FF52CF" stroke-width="2.0719" stroke-miterlimit="10" stroke-linecap="round"/>
<path d="M221.886 176.665C239.494 175.606 257.222 174.364 274.893 173.79C274.483 164.682 273.83 155.423 272.905 146.47C270.747 133.848 268.255 121.227 265.732 108.546C243.732 100.581 219.92 99.0381 197.077 104.099C174.233 109.159 153.301 120.613 136.723 137.125L86.5052 187.875C131.546 183.157 176.683 179.319 221.886 176.665Z" stroke="#FF52CF" stroke-width="2.0719" stroke-miterlimit="10" stroke-linecap="round"/>
<path d="M221.886 176.665C239.494 175.606 257.222 174.364 274.893 173.79C274.483 164.682 273.83 155.423 272.905 146.47C270.747 133.848 268.255 121.227 265.732 108.546C243.732 100.581 219.92 99.0381 197.077 104.099C174.233 109.159 153.301 120.613 136.723 137.125L86.5052 187.875C131.546 183.157 176.683 179.319 221.886 176.665Z" stroke="#FF52CF" stroke-width="2.0719" stroke-miterlimit="10" stroke-linecap="round"/>
<path d="M221.886 176.665C239.493 175.605 257.222 174.363 274.892 173.79C274.483 164.682 273.829 155.423 272.904 146.469C271.153 136.214 269.158 125.93 267.133 115.645C245.64 108.349 222.536 107.205 200.428 112.343C178.32 117.48 158.087 128.695 142.014 144.72L100.74 186.407C141.047 182.38 181.419 179.052 221.886 176.665Z" stroke="#FF52CF" stroke-width="2.0719" stroke-miterlimit="10" stroke-linecap="round"/>
<path d="M221.886 176.665C239.493 175.605 257.222 174.363 274.892 173.79C274.483 164.682 273.829 155.423 272.904 146.469C271.153 136.214 269.158 125.93 267.133 115.645C245.64 108.349 222.536 107.205 200.428 112.343C178.32 117.48 158.087 128.695 142.014 144.72L100.74 186.407C141.047 182.38 181.419 179.052 221.886 176.665Z" stroke="#FF52CF" stroke-width="2.0719" stroke-miterlimit="10" stroke-linecap="round"/>
</g>
<defs>
<clipPath id="clip0">
<rect width="165" height="113" fill="white" transform="translate(165 113) rotate(-180)"/>
</clipPath>
</defs>
</svg>
