<svg width="406" height="72" viewBox="0 0 406 72" fill="none" xmlns="http://www.w3.org/2000/svg">
<g clip-path="url(#clip0)">
<path d="M36 27.5999C34.8117 27.5957 33.6368 27.8509 32.5572 28.3475C32.1851 28.5188 31.926 28.868 31.8701 29.2739C31.8142 29.6797 31.9692 30.086 32.2812 30.3515C32.5777 30.607 32.7467 30.9801 32.7432 31.3715C32.7419 32.1285 32.1286 32.7418 31.3716 32.7431C30.9805 32.7467 30.6077 32.5777 30.3528 32.2811C30.0874 31.9685 29.6807 31.8132 29.2745 31.8691C28.8683 31.925 28.5187 32.1845 28.3476 32.5571C27.851 33.6367 27.5958 34.8116 27.6 35.9999C27.6 40.6391 31.3608 44.3999 36 44.3999C40.6392 44.3999 44.4 40.6391 44.4 35.9999C44.4 31.3607 40.6392 27.5999 36 27.5999ZM36 41.9999C32.6879 41.9959 30.004 39.312 30 35.9999C29.9994 35.6377 30.0319 35.2762 30.0972 34.9199C31.4704 35.4099 33.0031 35.065 34.0341 34.034C35.0651 33.003 35.41 31.4704 34.92 30.0971C35.2763 30.0318 35.6378 29.9993 36 29.9999C39.3137 29.9999 42 32.6862 42 35.9999C42 39.3136 39.3137 41.9999 36 41.9999Z" fill="white"/>
<path d="M67.1581 48.4188C69.6126 39.8246 68.397 30.5976 63.8005 22.9324C59.204 15.2671 51.6373 9.84859 42.9001 7.96557L39.2077 1.80837C38.5286 0.685775 37.3121 -0.00012207 36.0001 -0.00012207C34.6881 -0.00012207 33.4716 0.685775 32.7925 1.80837L29.1001 7.96557C20.3629 9.84859 12.7962 15.2671 8.19971 22.9324C3.60319 30.5976 2.38762 39.8246 4.8421 48.4188L0.528094 55.6188C-0.159465 56.7493 -0.177854 58.1643 0.480094 59.3124C1.13937 60.4887 2.38729 61.2122 3.73569 61.2H11.8801C18.0151 68.0706 26.789 71.9988 36.0001 71.9988C45.2112 71.9988 53.9851 68.0706 60.1201 61.2H68.2633C69.6121 61.2127 70.8606 60.4891 71.5201 59.3124C72.1808 58.163 72.1629 56.745 71.4733 55.6128L67.1581 48.4188ZM66.0001 39.6C65.9953 41.577 65.7943 43.5487 65.4001 45.486L58.9669 34.7568L58.9585 34.7424L44.6485 10.8816C57.3093 14.7137 65.977 26.372 66.0001 39.6V39.6ZM34.6549 47.9196C28.5901 47.2194 24.0177 42.0773 24.0313 35.9722C24.0448 29.8671 28.6399 24.7453 34.7077 24.072C35.1373 24.0384 35.5657 24 36.0001 24C36.4345 24 36.8629 24.0384 37.2925 24.072C43.6225 24.7684 48.3061 30.2882 47.9626 36.6472C47.6192 43.0061 42.3683 47.9894 36.0001 48C35.5609 48 35.1073 47.9568 34.6549 47.9196V47.9196ZM15.1273 35.9352C17.7102 32.9139 20.6957 30.2615 24.0001 28.0524C20.7976 32.8647 20.7976 39.1293 24.0001 43.9416C20.6974 41.7326 17.7121 39.0824 15.1273 36.0648C15.1075 36.0491 15.096 36.0252 15.096 36C15.096 35.9747 15.1075 35.9509 15.1273 35.9352V35.9352ZM50.4001 36C50.403 33.1718 49.5679 30.4062 48.0001 28.0524C51.3071 30.261 54.295 32.9134 56.8801 35.9352C56.8999 35.9509 56.9114 35.9747 56.9114 36C56.9114 36.0252 56.8999 36.0491 56.8801 36.0648C54.7067 38.6043 52.2508 40.8879 49.5601 42.8712C49.0381 43.254 48.5173 43.6092 48.0001 43.9512C49.5685 41.5963 50.4037 38.8293 50.4001 36V36ZM34.8505 3.04317C35.0958 2.64345 35.5311 2.39983 36.0001 2.39983C36.4691 2.39983 36.9044 2.64345 37.1497 3.04317L52.2001 28.1388C48.3409 25.0956 43.2157 22.1472 37.5265 21.6828C36.5127 21.5724 35.4899 21.5724 34.4761 21.6828C28.7869 22.1472 23.6617 25.0956 19.8025 28.1388L34.8505 3.04317ZM6.0001 39.6C6.02323 26.372 14.6909 14.7137 27.3517 10.8816L13.0441 34.74L13.0345 34.758L6.6001 45.486C6.20586 43.5487 6.00488 41.577 6.0001 39.6ZM36.0001 69.6C28.243 69.5982 20.7892 66.5869 15.2077 61.2H56.7925C51.211 66.5869 43.7572 69.5982 36.0001 69.6V69.6ZM69.4297 58.1292C69.1928 58.5486 68.7462 58.8057 68.2645 58.8H3.73569C3.25399 58.8057 2.80739 58.5486 2.57049 58.1292C2.33896 57.7314 2.34496 57.2384 2.58609 56.8464L7.1689 49.2C7.1773 49.1844 7.1881 49.1712 7.1953 49.1556L13.7821 38.1732C16.5205 41.2872 22.7821 47.5092 30.6505 49.6536L30.7237 49.6704C31.6286 49.9224 32.5512 50.1061 33.4837 50.22C33.5292 50.2309 33.5753 50.2393 33.6217 50.2452C34.4106 50.3457 35.2049 50.3974 36.0001 50.4C40.8781 50.4 45.9181 48.5184 50.9761 44.808C53.618 42.8597 56.0456 40.6364 58.2181 38.1756L64.8001 49.1592C64.8085 49.1748 64.8181 49.188 64.8265 49.2036L69.4093 56.8464C69.6519 57.2376 69.6598 57.7305 69.4297 58.1292Z" fill="white"/>
<path d="M21.6 52.8H12C11.3373 52.8 10.8 53.3373 10.8 54C10.8 54.6628 11.3373 55.2 12 55.2H21.6C22.2627 55.2 22.8 54.6628 22.8 54C22.8 53.3373 22.2627 52.8 21.6 52.8Z" fill="white"/>
<path d="M40.8 52.8H31.2C30.5373 52.8 30 53.3373 30 54C30 54.6628 30.5373 55.2 31.2 55.2H40.8C41.4627 55.2 42 54.6628 42 54C42 53.3373 41.4627 52.8 40.8 52.8Z" fill="white"/>
<path d="M60 52.8H50.4C49.7372 52.8 49.2 53.3373 49.2 54C49.2 54.6628 49.7372 55.2 50.4 55.2H60C60.6627 55.2 61.2 54.6628 61.2 54C61.2 53.3373 60.6627 52.8 60 52.8Z" fill="white"/>
<path d="M31.2 19.2001H40.8C41.4627 19.2001 42 18.6628 42 18C42 17.3373 41.4627 16.8 40.8 16.8H31.2C30.5373 16.8 30 17.3373 30 18C30 18.6628 30.5373 19.2001 31.2 19.2001Z" fill="white"/>
<path d="M33.6 13.1999H38.4C39.0627 13.1999 39.6 12.6627 39.6 11.9999C39.6 11.3372 39.0627 10.7999 38.4 10.7999H33.6C32.9373 10.7999 32.4 11.3372 32.4 11.9999C32.4 12.6627 32.9373 13.1999 33.6 13.1999Z" fill="white"/>
</g>
<path d="M90.324 26.4H94.86V42.304H104.688V46H90.324V26.4ZM125.058 46L125.03 34.24L119.262 43.928H117.218L111.478 34.492V46H107.222V26.4H110.974L118.31 38.58L125.534 26.4H129.258L129.314 46H125.058ZM146.873 41.8H137.773L136.037 46H131.389L140.125 26.4H144.605L153.369 46H148.609L146.873 41.8ZM145.445 38.356L142.337 30.852L139.229 38.356H145.445ZM164.621 46.336C162.586 46.336 160.747 45.8973 159.105 45.02C157.481 44.1427 156.202 42.9387 155.269 41.408C154.354 39.8587 153.897 38.1227 153.897 36.2C153.897 34.2773 154.354 32.5507 155.269 31.02C156.202 29.4707 157.481 28.2573 159.105 27.38C160.747 26.5027 162.586 26.064 164.621 26.064C166.655 26.064 168.485 26.5027 170.109 27.38C171.733 28.2573 173.011 29.4707 173.945 31.02C174.878 32.5507 175.345 34.2773 175.345 36.2C175.345 38.1227 174.878 39.8587 173.945 41.408C173.011 42.9387 171.733 44.1427 170.109 45.02C168.485 45.8973 166.655 46.336 164.621 46.336ZM164.621 42.472C165.778 42.472 166.823 42.2107 167.757 41.688C168.69 41.1467 169.418 40.4 169.941 39.448C170.482 38.496 170.753 37.4133 170.753 36.2C170.753 34.9867 170.482 33.904 169.941 32.952C169.418 32 168.69 31.2627 167.757 30.74C166.823 30.1987 165.778 29.928 164.621 29.928C163.463 29.928 162.418 30.1987 161.485 30.74C160.551 31.2627 159.814 32 159.273 32.952C158.75 33.904 158.489 34.9867 158.489 36.2C158.489 37.4133 158.75 38.496 159.273 39.448C159.814 40.4 160.551 41.1467 161.485 41.688C162.418 42.2107 163.463 42.472 164.621 42.472ZM186.039 37.544H193.375V39.28H186.039V37.544ZM209.379 28.192H202.491V26.4H218.339V28.192H211.451V46H209.379V28.192ZM235.509 44.208V46H221.649V26.4H235.089V28.192H223.721V35.164H233.857V36.928H223.721V44.208H235.509ZM248.837 46.168C246.895 46.168 245.141 45.7387 243.573 44.88C242.023 44.0213 240.801 42.836 239.905 41.324C239.027 39.7933 238.589 38.0853 238.589 36.2C238.589 34.3147 239.027 32.616 239.905 31.104C240.801 29.5733 242.033 28.3787 243.601 27.52C245.169 26.6613 246.923 26.232 248.865 26.232C250.321 26.232 251.665 26.4747 252.897 26.96C254.129 27.4453 255.174 28.1547 256.033 29.088L254.717 30.404C253.186 28.8547 251.254 28.08 248.921 28.08C247.371 28.08 245.962 28.4347 244.693 29.144C243.423 29.8533 242.425 30.824 241.697 32.056C240.987 33.288 240.633 34.6693 240.633 36.2C240.633 37.7307 240.987 39.112 241.697 40.344C242.425 41.576 243.423 42.5467 244.693 43.256C245.962 43.9653 247.371 44.32 248.921 44.32C251.273 44.32 253.205 43.536 254.717 41.968L256.033 43.284C255.174 44.2173 254.119 44.936 252.869 45.44C251.637 45.9253 250.293 46.168 248.837 46.168ZM276.83 26.4V46H274.786V36.956H262.522V46H260.45V26.4H262.522V35.136H274.786V26.4H276.83ZM299.607 26.4V46H297.899L285.299 30.096V46H283.227V26.4H284.935L297.563 42.304V26.4H299.607ZM314.573 46.168C312.631 46.168 310.867 45.7387 309.281 44.88C307.713 44.0027 306.481 42.808 305.585 41.296C304.707 39.784 304.269 38.0853 304.269 36.2C304.269 34.3147 304.707 32.616 305.585 31.104C306.481 29.592 307.713 28.4067 309.281 27.548C310.867 26.6707 312.631 26.232 314.573 26.232C316.514 26.232 318.259 26.6613 319.809 27.52C321.377 28.3787 322.609 29.5733 323.505 31.104C324.401 32.616 324.849 34.3147 324.849 36.2C324.849 38.0853 324.401 39.7933 323.505 41.324C322.609 42.836 321.377 44.0213 319.809 44.88C318.259 45.7387 316.514 46.168 314.573 46.168ZM314.573 44.32C316.122 44.32 317.522 43.9747 318.773 43.284C320.023 42.5747 321.003 41.604 321.713 40.372C322.422 39.1213 322.777 37.7307 322.777 36.2C322.777 34.6693 322.422 33.288 321.713 32.056C321.003 30.8053 320.023 29.8347 318.773 29.144C317.522 28.4347 316.122 28.08 314.573 28.08C313.023 28.08 311.614 28.4347 310.345 29.144C309.094 29.8347 308.105 30.8053 307.377 32.056C306.667 33.288 306.312 34.6693 306.312 36.2C306.312 37.7307 306.667 39.1213 307.377 40.372C308.105 41.604 309.094 42.5747 310.345 43.284C311.614 43.9747 313.023 44.32 314.573 44.32ZM329.493 26.4H331.565V44.208H342.541V46H329.493V26.4ZM354.166 46.168C352.225 46.168 350.461 45.7387 348.874 44.88C347.306 44.0027 346.074 42.808 345.178 41.296C344.301 39.784 343.862 38.0853 343.862 36.2C343.862 34.3147 344.301 32.616 345.178 31.104C346.074 29.592 347.306 28.4067 348.874 27.548C350.461 26.6707 352.225 26.232 354.166 26.232C356.108 26.232 357.853 26.6613 359.402 27.52C360.97 28.3787 362.202 29.5733 363.098 31.104C363.994 32.616 364.442 34.3147 364.442 36.2C364.442 38.0853 363.994 39.7933 363.098 41.324C362.202 42.836 360.97 44.0213 359.402 44.88C357.853 45.7387 356.108 46.168 354.166 46.168ZM354.166 44.32C355.716 44.32 357.116 43.9747 358.366 43.284C359.617 42.5747 360.597 41.604 361.306 40.372C362.016 39.1213 362.37 37.7307 362.37 36.2C362.37 34.6693 362.016 33.288 361.306 32.056C360.597 30.8053 359.617 29.8347 358.366 29.144C357.116 28.4347 355.716 28.08 354.166 28.08C352.617 28.08 351.208 28.4347 349.938 29.144C348.688 29.8347 347.698 30.8053 346.97 32.056C346.261 33.288 345.906 34.6693 345.906 36.2C345.906 37.7307 346.261 39.1213 346.97 40.372C347.698 41.604 348.688 42.5747 349.938 43.284C351.208 43.9747 352.617 44.32 354.166 44.32ZM382.891 36.2H384.879V43.676C383.964 44.4787 382.881 45.0947 381.631 45.524C380.38 45.9533 379.064 46.168 377.683 46.168C375.723 46.168 373.959 45.7387 372.391 44.88C370.823 44.0213 369.591 42.836 368.695 41.324C367.799 39.7933 367.351 38.0853 367.351 36.2C367.351 34.3147 367.799 32.616 368.695 31.104C369.591 29.5733 370.823 28.3787 372.391 27.52C373.959 26.6613 375.732 26.232 377.711 26.232C379.204 26.232 380.576 26.4747 381.827 26.96C383.077 27.4267 384.132 28.1267 384.991 29.06L383.703 30.376C382.153 28.8453 380.184 28.08 377.795 28.08C376.208 28.08 374.771 28.4347 373.483 29.144C372.213 29.8347 371.215 30.8053 370.487 32.056C369.759 33.288 369.395 34.6693 369.395 36.2C369.395 37.7307 369.759 39.112 370.487 40.344C371.215 41.576 372.213 42.5467 373.483 43.256C374.752 43.9653 376.18 44.32 377.767 44.32C379.783 44.32 381.491 43.816 382.891 42.808V36.2ZM397.463 39.224V46H395.419V39.224L387.579 26.4H389.791L396.511 37.404L403.231 26.4H405.303L397.463 39.224Z" fill="white"/>
<defs>
<clipPath id="clip0">
<rect width="72" height="72" fill="white"/>
</clipPath>
</defs>
</svg>
